<mxfile host="app.diagrams.net" modified="2023-10-25T13:50:52.765Z" agent="Mozilla/5.0 (Windows NT 10.0; Win64; x64) AppleWebKit/537.36 (KHTML, like Gecko) Chrome/118.0.0.0 Safari/537.36" etag="BsKNOq0biUy8Ej1cBbh_" version="22.0.8" type="github">
  <diagram name="Side-1" id="iuWs3q5cyl7LvnMa140l">
    <mxGraphModel dx="313" dy="191" grid="1" gridSize="10" guides="1" tooltips="1" connect="1" arrows="1" fold="1" page="1" pageScale="1" pageWidth="827" pageHeight="1169" math="0" shadow="0">
      <root>
        <mxCell id="0" />
        <mxCell id="1" parent="0" />
        <mxCell id="n9z45cQNKOcP6cbtqa8D-1" value="Program&lt;br&gt;Memory" style="rounded=1;whiteSpace=wrap;html=1;" vertex="1" parent="1">
          <mxGeometry x="90" y="50" width="50" height="90" as="geometry" />
        </mxCell>
        <mxCell id="n9z45cQNKOcP6cbtqa8D-47" value="" style="shape=trapezoid;perimeter=trapezoidPerimeter;whiteSpace=wrap;html=1;fixedSize=1;rotation=90;size=22.5;rounded=0;shadow=0;" vertex="1" parent="1">
          <mxGeometry x="197.5" y="57.5" width="80" height="35" as="geometry" />
        </mxCell>
      </root>
    </mxGraphModel>
  </diagram>
</mxfile>
